<svg width="366" height="139" viewBox="0 0 366 139" fill="none" xmlns="http://www.w3.org/2000/svg">
<path d="M111.868 115.584H106.876V129.29L115.691 118.795L111.868 115.584ZM266.137 49.2513L269.724 45.7783L265.103 41.0056L261.804 46.7718L266.137 49.2513ZM266.137 115.584L263.934 111.104L249.947 117.982L265.327 120.511L266.137 115.584ZM364.864 89.5021C366.61 87.368 366.296 84.2224 364.162 82.4763C362.027 80.7302 358.882 81.0448 357.136 83.1789L364.864 89.5021ZM115.691 118.795C129.116 102.814 151.5 97.6113 177.382 100.847L178.621 90.9382C151.12 87.5005 124.578 92.6914 108.045 112.373L115.691 118.795ZM177.382 100.847C196.79 103.273 212.614 105.314 227.343 99.1124C242.201 92.8571 255.04 78.6994 270.471 51.7309L261.804 46.7718C246.588 73.3644 235.132 84.9987 223.469 89.9093C211.677 94.874 198.757 93.4551 178.621 90.9382L177.382 100.847ZM262.55 52.7244C269.472 59.8724 277.462 71.3485 279.734 82.6033C280.848 88.1199 280.541 93.3262 278.347 97.9711C276.164 102.59 271.853 107.209 263.934 111.104L268.341 120.064C277.825 115.4 284.028 109.32 287.375 102.237C290.71 95.1801 290.947 87.6816 289.522 80.6272C286.719 66.7398 277.306 53.6086 269.724 45.7783L262.55 52.7244ZM265.327 120.511C319.373 129.395 351.041 106.397 364.864 89.5021L357.136 83.1789C345.282 97.6673 317.037 118.891 266.947 110.657L265.327 120.511ZM106.876 0V115.584H116.861V0H106.876Z" fill="white"/>
<path d="M8.04316 40.0244C6.15283 38.3437 3.25794 38.5137 1.57726 40.404C-0.103433 42.2943 0.066515 45.1892 1.95684 46.8699L8.04316 40.0244ZM90.6725 119.618L87.6293 123.041L95.2314 129.8L95.2524 119.628L90.6725 119.618ZM90.7922 61.7766L95.3722 61.7861L95.3722 61.7766L90.7922 61.7766ZM90.5882 11.0815L95.1673 10.994L94.9615 0.231233L87.3497 7.84302L90.5882 11.0815ZM1.95684 46.8699L87.6293 123.041L93.7156 116.196L8.04316 40.0244L1.95684 46.8699ZM90.6725 119.618C95.2524 119.628 95.2524 119.628 95.2524 119.627C95.2524 119.627 95.2524 119.627 95.2524 119.626C95.2524 119.625 95.2524 119.624 95.2524 119.621C95.2525 119.617 95.2525 119.611 95.2525 119.602C95.2525 119.585 95.2526 119.56 95.2526 119.526C95.2528 119.458 95.253 119.358 95.2533 119.226C95.2538 118.962 95.2546 118.572 95.2557 118.068C95.2577 117.059 95.2608 115.592 95.2646 113.762C95.2721 110.102 95.2827 104.986 95.2948 99.1655C95.3189 87.5245 95.3488 73.0641 95.3722 61.7861L86.2123 61.7671C86.1889 73.0451 86.159 87.5055 86.1349 99.1465C86.1228 104.967 86.1123 110.083 86.1047 113.743C86.1009 115.573 86.0979 117.04 86.0958 118.049C86.0947 118.553 86.0939 118.943 86.0934 119.207C86.0931 119.339 86.0929 119.44 86.0928 119.507C86.0927 119.541 86.0926 119.566 86.0926 119.583C86.0926 119.592 86.0926 119.598 86.0926 119.602C86.0926 119.605 86.0926 119.606 86.0926 119.607C86.0926 119.608 86.0925 119.608 86.0925 119.609C86.0925 119.609 86.0925 119.609 90.6725 119.618ZM87.3497 7.84302L57.2739 37.9188L63.7509 44.3959L93.8267 14.3201L87.3497 7.84302ZM95.3722 61.7766C95.3722 41.7554 95.3212 29.0712 95.2701 21.3882C95.2445 17.5466 95.219 14.9544 95.1997 13.3198C95.1901 12.5025 95.1821 11.9244 95.1764 11.549C95.1736 11.3613 95.1713 11.2242 95.1698 11.1333C95.169 11.0878 95.1684 11.0538 95.168 11.0308C95.1678 11.0193 95.1676 11.0105 95.1675 11.0044C95.1675 11.0013 95.1674 10.9989 95.1674 10.9972C95.1674 10.9963 95.1674 10.9956 95.1673 10.9951C95.1673 10.9948 95.1673 10.9945 95.1673 10.9944C95.1673 10.9942 95.1673 10.994 90.5882 11.0815C86.0091 11.1691 86.0091 11.169 86.0091 11.1689C86.0091 11.1689 86.0091 11.1689 86.0091 11.169C86.0091 11.1691 86.0091 11.1694 86.0091 11.1698C86.0091 11.1707 86.0091 11.1722 86.0092 11.1745C86.0093 11.1789 86.0094 11.1861 86.0096 11.1959C86.0099 11.2157 86.0105 11.2465 86.0112 11.289C86.0126 11.3738 86.0148 11.505 86.0175 11.6871C86.023 12.0515 86.0309 12.6195 86.0404 13.4276C86.0595 15.0441 86.0849 17.6204 86.1104 21.4491C86.1613 29.1068 86.2123 41.77 86.2123 61.7766L95.3722 61.7766Z" fill="white"/>
</svg>
